<svg width="800" height="800" viewBox="0 0 800 800" fill="none" xmlns="http://www.w3.org/2000/svg">
<path d="M191 357L289 453C294 458 296 465 295 472L272 607L393 543C399 540 406 540 412 543L533 607L510 472C509 465 511 458 516 453L614 357L478 337C471 336 465 332 462 326L401 203L340 326C337 332 331 336 324 337L191 357Z" fill="black"/>
<path d="M191 357L289 453C294 458 296 465 295 472L272 607L393 543C399 540 406 540 412 543L533 607L510 472C509 465 511 458 516 453L614 357L478 337C471 336 465 332 462 326L401 203L340 326C337 332 331 336 324 337L191 357Z" fill="#F5D239"/>
<path fill-rule="evenodd" clip-rule="evenodd" d="M562 665C559 665 555 664 552 663L403 585L254 663C247 667 238 666 232 661C226 656 222 648 224 641L252 475L131 357C125 351 123 343 126 336C128 328 135 323 143 322L310 298L385 147C389 140 396 135 404 135C412 135 419 140 423 147L498 298L665 322C673 323 679 329 682 336C684 344 682 352 677 357L554 475L582 641C583 649 580 657 574 661C570 664 566 665 562 665ZM289 453L191 357L324 337C331 336 337 332 340 326L401 203L462 326C465 332 471 336 478 337L614 357L516 453C511 458 509 465 510 472L533 607L412 543C406 540 399 540 393 543L272 607L295 472C296 465 294 458 289 453Z" fill="black"/>
<path fill-rule="evenodd" clip-rule="evenodd" d="M562 665C559 665 555 664 552 663L403 585L254 663C247 667 238 666 232 661C226 656 222 648 224 641L252 475L131 357C125 351 123 343 126 336C128 328 135 323 143 322L310 298L385 147C389 140 396 135 404 135C412 135 419 140 423 147L498 298L665 322C673 323 679 329 682 336C684 344 682 352 677 357L554 475L582 641C583 649 580 657 574 661C570 664 566 665 562 665ZM289 453L191 357L324 337C331 336 337 332 340 326L401 203L462 326C465 332 471 336 478 337L614 357L516 453C511 458 509 465 510 472L533 607L412 543C406 540 399 540 393 543L272 607L295 472C296 465 294 458 289 453Z" fill="#F5D239" fill-opacity="0.2"/>
</svg>
