<svg width="800" height="800" viewBox="0 0 800 800" fill="none" xmlns="http://www.w3.org/2000/svg">
<path d="M694 331.345C694 422.886 659.84 505.78 604.674 565.731L391.228 797.58L388.999 800L173.537 565.845C163.14 554.662 153.592 542.556 144.787 529.759C106.596 474.536 84 405.822 84 331.345C84 251.564 109.991 178.355 153.274 121.17C165.898 104.338 180.115 89.0047 195.496 75.2844C248.117 28.2453 315.587 0 388.999 0C447.452 0 501.982 17.8703 548.341 48.7672C589.397 76.0906 623.981 113.675 649.124 158.294C677.555 208.675 694 267.934 694 331.345Z" fill="#81C7A3"/>
<path d="M516.806 315.001C516.806 386.799 459.55 445 388.903 445C318.27 445 261 386.799 261 315.001C261 243.202 318.27 185 388.903 185C459.55 185 516.806 243.202 516.806 315.001Z" fill="#796A56"/>
<path opacity="0.13" d="M694 331.345C694 422.886 659.84 505.78 604.675 565.731L391.229 797.58L389 800V0C447.452 0 501.982 17.8703 548.342 48.7672C589.397 76.0906 623.981 113.675 649.125 158.294C677.555 208.675 694 267.934 694 331.345Z" fill="#604C3F"/>
</svg>
